:SAMPLES-PER-SECOND 30
:FULLY-SPECIFIED
:DEGREES
61
root  34.88261005 36.50529216 -14.95112021 8.479273796 -1.437132001 3.293444157
lowerback  -8.556899071 0.08057647198 -0.1034633666
upperback  -3.425199986 0.542411983 -3.299999952
thorax  1.281759977 0.4158873856 -3.299050093
lowerneck  -14.77910042 -0.2245000005 -0.6528149843
upperneck  15.5447998 -1.669049978 6.472976685
head  7.277565479 -0.3706612587 2.034102678
lclavicle  0 -4.497500157e-015 -2.743230041e-014
lhumerus  -45.48799896 27.02459908 68.51429749
lradius  -0.009002206847 -6.507048965e-006 30.12670135
lwrist  4.824992743e-007 -3.790274832e-007 -27.1298008
lhand  -4.411182526e-031 -36.8227005 -10.74269962
lfingers  90 7.125020027 -90
lthumb  94.79417546 -25.58008613 100.9925763
rclavicle  0 -4.497500157e-015 -2.743230041e-014
rhumerus  -43.06880188 -0.1042796671 -82.73670197
rradius  -5.16745672e-007 2.214343908e-008 71.74060059
rwrist  -3.062178075e-005 0.02090237662 -170.5429993
rhand  -1.765616039e-031 0.4461149871 -8.024479866
rfingers  -90 -7.125020027 -90
rthumb  -86.14343456 -7.845599587 -63.7178454
rfemur  -12.13618946 15.51601124 13.66613483
rtibia  -1.281691074 0.1576807797 21.37805939
rfoot  -0.4823777676 -20.08016014 -38.68539047
rtoes  4.091099114 19.59389524 -102.0398227
lfemur  -8.96055603 -17.8686161 -19.2493515
ltibia  1.847450376 -0.004479026422 15.59300613
lfoot  0.6077474952 -25.91786575 35.86349487
ltoes  -8.600494586 -18.12509759 -115.9277265
62
root  34.88248089 36.50926305 -14.94786871 8.560380936 -1.439694047 3.278387308
lowerback  -8.504240036 0.07676333934 -0.0997812748
upperback  -3.398509979 0.5454639792 -3.305500031
thorax  1.280560017 0.4146260023 -3.306619883
lowerneck  -14.80150032 -0.2222770005 -0.6493729949
upperneck  15.55430031 -1.66817987 6.47547245
head  7.280580044 -0.3688580096 2.038006306
lclavicle  0 -4.497500157e-015 -2.743230041e-014
lhumerus  -45.45600128 27.01029968 68.55349731
lradius  -0.009002206847 -6.507048965e-006 30.11989784
lwrist  4.824992743e-007 -3.790274832e-007 -27.0522995
lhand  -0 -36.86009979 -10.71850014
lfingers  90 7.125020027 -90
lthumb  94.80658361 -25.55498506 101.0303104
rclavicle  0 -4.497500157e-015 -2.743230041e-014
rhumerus  -42.70980072 0.6889536977 -83.01429749
rradius  -5.16745672e-007 2.214343908e-008 73.06140137
rwrist  -3.062178075e-005 0.0208424218 -170.7409973
rhand  -1.765649418e-031 0.5684530139 -8.159930229
rfingers  -90 -7.125020027 -90
rthumb  -86.18038276 -7.731828717 -63.60709143
rfemur  -12.20895672 15.48816299 13.65856934
rtibia  -1.271414518 0.1486202925 21.35488129
rfoot  -0.46687603 -20.07876587 -38.65419388
rtoes  4.098838999 19.59233851 -102.0629035
lfemur  -9.045804977 -17.87202835 -19.1991787
ltibia  1.840792775 0.03762010857 15.59835625
lfoot  0.6284478307 -25.98225784 35.90089798
ltoes  -8.55152249 -18.14764464 -115.7704016
63
root  34.88100908 36.50923601 -14.94624971 8.534145355 -1.406175733 3.27069068
lowerback  -8.599128723 0.07180124521 -0.1332903653
upperback  -3.396529913 0.5446559787 -3.289079905
thorax  1.334589958 0.415504992 -3.270359993
lowerneck  -14.80669975 -0.222736001 -0.6784060001
upperneck  15.56159973 -1.66256988 6.479524136
head  7.283770084 -0.3670660257 2.039079905
lclavicle  0 -4.497500157e-015 -2.743230041e-014
lhumerus  -45.43569946 27.00469971 68.59149933
lradius  -0.009002206847 -6.507048965e-006 30.09259987
lwrist  4.824992743e-007 -3.790274832e-007 -27.11879921
lhand  -4.412895858e-031 -36.85240173 -10.75119972
lfingers  90 7.125020027 -90
lthumb  94.80989037 -25.58731236 101.025059
rclavicle  0 -4.497500157e-015 -2.743230041e-014
rhumerus  -42.32600021 1.4805305 -83.22380066
rradius  -5.16745672e-007 2.214343908e-008 74.24220276
rwrist  -3.062178075e-005 0.02078247629 -171.2709961
rhand  -1.765726548e-031 0.780978024 -8.086440086
rfingers  -90 -7.125020027 -90
rthumb  -86.10597484 -7.810948999 -63.39585669
rfemur  -12.18631935 15.50718975 13.67241478
rtibia  -1.27161479 0.1810389012 21.36217117
rfoot  -0.4658319652 -20.02414894 -38.67733765
rtoes  4.113641887 19.58935258 -102.1070516
lfemur  -9.051452637 -17.85032845 -19.18641663
ltibia  1.81203413 0.04063334689 15.64169312
lfoot  0.6175654531 -26.02165794 35.85142899
ltoes  -8.578738033 -18.13513428 -115.8578093
64
root  34.87827571 36.51127853 -14.945266 8.58831501 -1.348252058 3.249931574
lowerback  -8.560819626 0.03999234363 -0.1530908346
upperback  -3.396840096 0.504298985 -3.304440022
thorax  1.310860038 0.3955970109 -3.279139996
lowerneck  -14.82929993 -0.1955330074 -0.6152380109
upperneck  15.60070038 -1.644940019 6.482659817
head  7.301417351 -0.3550660908 2.032413244
lclavicle  0 -4.497500157e-015 -2.743230041e-014
lhumerus  -45.46110153 27.02949905 68.52829742
lradius  -0.009002206847 -6.507048965e-006 30.07319832
lwrist  4.824992743e-007 -3.790274832e-007 -27.15460014
lhand  -4.412849614e-031 -36.85160065 -10.81070042
lfingers  90 7.125020027 -90
lthumb  94.82212964 -25.64578068 101.0296317
rclavicle  0 -4.497500157e-015 -2.743230041e-014
rhumerus  -41.90750122 2.25968051 -83.49320221
rradius  -5.16745672e-007 2.214343908e-008 75.498703
rwrist  -3.062178075e-005 0.02072253451 -171.5720062
rhand  -1.765779766e-031 0.8987749815 -7.985960007
rfingers  -90 -7.125020027 -90
rthumb  -86.03725488 -7.908136536 -63.27498107
rfemur  -12.24512959 15.50579357 13.69753742
rtibia  -1.273467898 0.2096485794 21.3728447
rfoot  -0.479232192 -19.97410202 -38.72941208
rtoes  4.143878705 19.58321831 -102.1972499
lfemur  -9.151404381 -17.87508774 -19.12002373
ltibia  1.775910616 0.05410525203 15.69882011
lfoot  0.6045002341 -26.05024147 35.80271149
ltoes  -8.616026495 -18.117913 -115.977663
65
root  34.87668676 36.5128014 -14.94458416 8.641236305 -1.316586375 3.216195107
lowerback  -8.535140038 0.03065827116 -0.1857943684
upperback  -3.386620045 0.4944800138 -3.318310022
thorax  1.306660056 0.390846014 -3.276030064
lowerneck  -14.8494997 -0.1845510006 -0.5850840211
upperneck  15.62959957 -1.640880108 6.484330177
head  7.312310219 -0.3509759605 2.026259899
lclavicle  0 -4.497500157e-015 -2.743230041e-014
lhumerus  -45.46039963 27.06940079 68.48590088
lradius  -0.009002206847 -6.507048965e-006 30.04940033
lwrist  4.824992743e-007 -3.790274832e-007 -27.27930069
lhand  -4.413230632e-031 -36.85820007 -10.81849957
lfingers  90 7.125020027 -90
lthumb  94.82693507 -25.65318713 101.0375053
rclavicle  0 -4.497500157e-015 -2.743230041e-014
rhumerus  -41.47090149 2.934770107 -83.67379761
rradius  -5.16745672e-007 2.214343908e-008 76.7161026
rwrist  -3.062178075e-005 0.02066259831 -171.9080048
rhand  -1.765728154e-031 0.784792006 -8.021730423
rfingers  -90 -7.125020027 -90
rthumb  -86.07594373 -7.869080911 -63.38810308
rfemur  -12.25469017 15.46808434 13.69296932
rtibia  -1.240425229 0.1973225772 21.2912178
rfoot  -0.4568604231 -19.98736572 -38.7378273
rtoes  4.168925182 19.57810131 -102.2719857
lfemur  -9.252015114 -17.94732666 -19.04738998
ltibia  1.72744453 0.05231530964 15.77825737
lfoot  0.5935986638 -26.05837822 35.7960701
ltoes  -8.610946678 -18.12026455 -115.9613288
